<?xml version="1.0" encoding="utf-8"?>
<!-- Generator: Adobe Illustrator 23.0.6, SVG Export Plug-In . SVG Version: 6.00 Build 0)  -->
<svg version="1.1" id="Layer_1" xmlns="http://www.w3.org/2000/svg" xmlns:xlink="http://www.w3.org/1999/xlink" x="0px" y="0px"
	 viewBox="0 0 347 347" style="enable-background:new 0 0 347 347;" xml:space="preserve">
<style type="text/css">
	.st0{fill:#E2E7ED;}
	.st1{fill:#92BFE8;}
	.st2{fill:#F48462;}
	.st3{fill:#D86F56;}
	.st4{fill:#0C192D;}
	.st5{fill:#80B1D6;}
	.st6{fill:#E6F4FF;}
</style>
<g>
	<path class="st0" d="M346.7,173.9c0,33.1-9.3,64-25.3,90.3c-2.8,4.6-5.8,9-9,13.2c-2.3,3.1-4.8,6.1-7.3,9.1
		c-6.6,7.8-14,15-21.9,21.5c-2.6,2.1-5.3,4.2-8,6.2c-1.5,1.1-3,2.2-4.6,3.2c-2.7,1.8-5.4,3.5-8.2,5.2c-0.5,0.4-1.1,0.7-1.6,1
		c-0.6,0.3-1.2,0.7-1.7,1c-5.5,3.2-11.3,6-17.1,8.5c-12.4,5.3-25.5,9.2-39.2,11.6c-1.5,0.3-3,0.5-4.5,0.7c-3.9,0.6-7.8,1-11.7,1.3
		c-0.4,0-0.8,0.1-1.2,0.1c-2.7,0.2-5.5,0.3-8.3,0.3c-1.2,0.1-2.3,0.1-3.5,0.1c-14,0-27.6-1.7-40.6-4.8c-10.6-2.5-20.8-6.1-30.5-10.5
		c-7.7-3.4-15.2-7.5-22.2-12c-2.6-1.7-5.2-3.5-7.8-5.3c-3-2.2-5.9-4.4-8.8-6.8c-7.5-6.1-14.4-12.9-20.8-20.2
		c-1.4-1.6-2.8-3.3-4.1-4.9c-1.4-1.8-2.9-3.6-4.2-5.5c-0.6-0.8-1.2-1.5-1.7-2.3c-4.6-6.4-8.7-13-12.4-20c-1.5-2.7-2.9-5.6-4.2-8.4
		C6.1,224.3,0.4,199.7,0.4,173.9C0.4,78.3,77.9,0.8,173.6,0.8S346.7,78.3,346.7,173.9z"/>
</g>
<g>
	<path class="st1" d="M275.2,314.1c-1.5,1.1-3,2.2-4.6,3.2c-3.2,2.2-6.5,4.2-9.8,6.2c-18.9,11-40,18.6-62.6,21.8
		c-1.1,0.1-2.2,0.3-3.3,0.4c-5.8,0.7-11.6,1.2-17.6,1.3H177c-1.2,0.1-2.3,0.1-3.5,0.1c-14,0-27.6-1.7-40.6-4.8
		c-19-4.6-36.8-12.3-52.7-22.5c-5.8-3.7-11.3-7.7-16.6-12.1c-7.5-6.1-14.4-12.9-20.8-20.2c-1.4-1.6-2.8-3.3-4.1-4.9
		c-2.2-29.7,25.7-58.3,30.7-64.1c16-18.9,61-29.5,105.2-28.2c0,0,60.2-0.2,85.3,26.6C271,228.5,274.7,270.5,275.2,314.1z"/>
</g>
<g>
	<path class="st1" d="M74.7,213.3l-2.3,101.2c-3-2.2-5.9-4.4-8.8-6.8c-7.5-6.1-14.4-12.9-20.8-20.2c-1.4-1.6-2.8-3.3-4.1-4.9
		c-1.4-1.8-2.9-3.6-4.2-5.5c-0.6-0.8-1.2-1.5-1.7-2.3c-4.6-6.4-8.7-13-12.4-20C42.6,233.5,74.7,213.3,74.7,213.3z"/>
</g>
<g>
	<path class="st1" d="M305.1,286.5c-6.6,7.8-14,15-21.9,21.5c-2.6,2.1-5.3,4.2-8,6.2c-1.5,1.1-3,2.2-4.6,3.2c-0.7,0.5-1.4,1-2.2,1.4
		c-0.9,0.6-1.8,1.2-2.7,1.7c-1.6,1.1-3.3,2.1-5,3c-6.1,3.6-12.4,6.7-18.9,9.5l-21.5-17.7l41-96.9L305.1,286.5z"/>
</g>
<g>
	<g>
		<g>
			<g>
				<path class="st2" d="M141.7,158.9l-2.8,34.7c0,0,2.4,10.5,25.1,14.3c16.9,2.8,26.2-7.5,26.2-7.5l-0.3-7.5l-0.8-19.5l-40.6-12.4
					L141.7,158.9z"/>
			</g>
		</g>
	</g>
</g>
<g>
	<g>
		<g>
			<g>
				<path class="st3" d="M148.5,160.9c0,1.1,0.3,2.4,0.8,3.9c7.2,20.2,30.8,26.4,40.5,28.1l-0.8-19.5L148.5,160.9z"/>
			</g>
		</g>
	</g>
</g>
<g>
	<g>
		<g>
			<g>
				<path class="st2" d="M205,84.9c0,0,16.5,50.7,6.2,77.3c-10.3,26.6-34.8,19.9-49.2,13.2c-14.4-6.7-20.4-16.5-20.4-16.5
					s-14.4,3.4-22.4-10.5s-0.9-28.2,7.4-30.8c8.3-2.6,17.2,4,17.2,4l-6-14.9C137.8,106.8,175.9,37.9,205,84.9z"/>
			</g>
		</g>
	</g>
</g>
<g>
	<path class="st4" d="M205,84.9l-3.1-4.6c0,0-3.9,2.6-12.4,4.4c-13.2,2.9-28.6,2-28.6,2s2.6,3.8,2,17.3
		c-0.6,13.6-14.7,21.2-14.7,21.2c-5-3.5-9.1-5.5-12.7-6.5c-1.5-0.4-2.9-0.7-4.1-0.9c-8.1-0.8-11.2,4.2-11.2,4.2s-18.7-29.9,2.9-51.3
		c15.2-15,35.6-14,46.3-12.1c3.7,0.7,6.2,1.4,7.1,1.7c0.3,0.1,0.4,0.1,0.4,0.1s32.5-7.7,37.9-2.9C220.2,62.5,208.9,85.1,205,84.9z"
		/>
</g>
<g>
	<path class="st5" d="M195,345.7c-5.8,0.7-11.6,1.2-17.6,1.3l-12.9-137.5l12.7,3.3L195,345.7z"/>
</g>
<g>
	<path class="st6" d="M190.7,191.8c0,0,14.8,41,10.4,40.4c-4.3-0.6-30.8-21.7-30.8-21.7s-17.4,23.9-23.4,24.3
		c-6.1,0.4-8-42.7-8-42.7s4.6,12.2,27.2,14.3C188.7,208.4,190.7,191.8,190.7,191.8z"/>
</g>
<g>
	<g>
		<path class="st6" d="M262.5,322.5c-0.5,0.4-1.1,0.7-1.6,1c-0.6,0.3-1.2,0.7-1.7,1l-14.8-69.4c-0.2-1,0.4-2,1.4-2.2s2,0.4,2.2,1.4
			L262.5,322.5z"/>
	</g>
</g>
</svg>
